HIERARCHY
ROOT Hips
{
	OFFSET 0.000000 0.000000 0.000000
	CHANNELS 6 Xposition Yposition Zposition Zrotation Yrotation Xrotation 
	JOINT LHipJoint
	{
		OFFSET 0.000000 0.000000 0.000000
		CHANNELS 3 Zrotation Yrotation Xrotation
		JOINT LeftUpLeg
		{
			OFFSET 1.363060 -1.794630 0.839290
			CHANNELS 3 Zrotation Yrotation Xrotation
			JOINT LeftLeg
			{
				OFFSET 2.448110 -6.726130 0.000000
				CHANNELS 3 Zrotation Yrotation Xrotation
				JOINT LeftFoot
				{
					OFFSET 2.562200 -7.039590 0.000000
					CHANNELS 3 Zrotation Yrotation Xrotation
					JOINT LeftToeBase
					{
						OFFSET 0.157640 -0.433110 2.322550
						CHANNELS 3 Zrotation Yrotation Xrotation
						End Site
						{
							OFFSET 0.000000 0.000000 0.000000
						}
					}
				}
			}
		}
	}
	JOINT RHipJoint
	{
		OFFSET 0.000000 0.000000 0.000000
		CHANNELS 3 Zrotation Yrotation Xrotation
		JOINT RightUpLeg
		{
			OFFSET -1.305520 -1.794630 0.839290
			CHANNELS 3 Zrotation Yrotation Xrotation
			JOINT RightLeg
			{
				OFFSET -2.542530 -6.985550 0.000000
				CHANNELS 3 Zrotation Yrotation Xrotation
				JOINT RightFoot
				{
					OFFSET -2.568260 -7.056230 0.000000
					CHANNELS 3 Zrotation Yrotation Xrotation
					JOINT RightToeBase
					{
						OFFSET -0.164730 -0.452590 2.363150
						CHANNELS 3 Zrotation Yrotation Xrotation
						End Site
						{
							OFFSET 0.000000 0.000000 0.000000
						}
					}
				}
			}
		}
	}
	JOINT LowerBack
	{
		OFFSET 0.000000 0.000000 0.000000
		CHANNELS 3 Zrotation Yrotation Xrotation
		JOINT Spine
		{
			OFFSET 0.028270 2.035590 -0.193380
			CHANNELS 3 Zrotation Yrotation Xrotation
			JOINT Spine1
			{
				OFFSET 0.056720 2.048850 -0.042750
				CHANNELS 3 Zrotation Yrotation Xrotation
				JOINT Neck
				{
					OFFSET 0.000000 0.000000 0.000000
					CHANNELS 3 Zrotation Yrotation Xrotation
					JOINT Neck1
					{
						OFFSET -0.054170 1.746240 0.172020
						CHANNELS 3 Zrotation Yrotation Xrotation
						JOINT Head
						{
							OFFSET 0.104070 1.761360 -0.123970
							CHANNELS 3 Zrotation Yrotation Xrotation
							End Site
							{
								OFFSET 0.000000 0.000000 0.000000
							}
						}
					}
				}
				JOINT LeftShoulder
				{
					OFFSET 0.000000 0.000000 0.000000
					CHANNELS 3 Zrotation Yrotation Xrotation
					JOINT LeftArm
					{
						OFFSET 3.362410 1.200890 -0.311210
						CHANNELS 3 Zrotation Yrotation Xrotation
						JOINT LeftForeArm
						{
							OFFSET 4.983000 -0.000000 -0.000000
							CHANNELS 3 Zrotation Yrotation Xrotation
							JOINT LeftHand
							{
								OFFSET 3.483560 -0.000000 -0.000000
								CHANNELS 3 Zrotation Yrotation Xrotation
								JOINT LeftFingerBase
								{
									OFFSET 0.000000 0.000000 0.000000
									CHANNELS 3 Zrotation Yrotation Xrotation
									JOINT LeftHandIndex1
									{
										OFFSET 0.715260 -0.000000 -0.000000
										CHANNELS 3 Zrotation Yrotation Xrotation
										End Site
										{
											OFFSET 0.000000 0.000000 0.000000
										}
									}
								}
								JOINT LThumb
								{
									OFFSET 0.000000 0.000000 0.000000
									CHANNELS 3 Zrotation Yrotation Xrotation
									End Site
									{
										OFFSET 0.000000 0.000000 0.000000
									}
								}
							}
						}
					}
				}
				JOINT RightShoulder
				{
					OFFSET 0.000000 0.000000 0.000000
					CHANNELS 3 Zrotation Yrotation Xrotation
					JOINT RightArm
					{
						OFFSET -3.136600 1.374050 -0.404650
						CHANNELS 3 Zrotation Yrotation Xrotation
						JOINT RightForeArm
						{
							OFFSET -5.241900 -0.000000 -0.000000
							CHANNELS 3 Zrotation Yrotation Xrotation
							JOINT RightHand
							{
								OFFSET -3.444170 -0.000000 -0.000000
								CHANNELS 3 Zrotation Yrotation Xrotation
								JOINT RightFingerBase
								{
									OFFSET 0.000000 0.000000 0.000000
									CHANNELS 3 Zrotation Yrotation Xrotation
									JOINT RightHandIndex1
									{
										OFFSET -0.622530 -0.000000 -0.000000
										CHANNELS 3 Zrotation Yrotation Xrotation
										End Site
										{
											OFFSET 0.000000 0.000000 0.000000
										}
									}
								}
								JOINT RThumb
								{
									OFFSET 0.000000 0.000000 0.000000
									CHANNELS 3 Zrotation Yrotation Xrotation
									End Site
									{
										OFFSET 0.000000 0.000000 0.000000
									}
								}
							}
						}
					}
				}
			}
		}
	}
}
MOTION
Frames: 12
Frame Time: 0.008333
0.018268 17.899224 -23.971533 -2.199931 3.438188 1.404999 -5.595094 -1.462266 1.050618 -10.894598 -3.157674 -8.008905 1.274730 9.308402 25.571637 0.924852 -2.503033 -5.715427 0.712300 -5.393800 -15.035100 4.647143 2.030005 -0.173263 19.283946 3.412873 -6.105269 -2.275154 -10.313399 27.626160 -0.128642 -2.937871 -12.413891 -0.050400 1.448900 -3.984800 -0.448276 -0.685098 10.327679 1.688864 -0.860977 -3.182409 4.011653 -0.031651 -10.390010 -20.408392 -15.568692 -0.489780 10.367404 -19.962444 6.524378 7.301600 -10.479500 8.853300 7.283322 5.117235 -0.282039 -102.624175 7.179817 16.871956 16.101041 -25.805277 -3.167679 1.073111 0.121237 3.332321 11.173357 27.715893 4.726700 -7.125000 0.000000 0.000000 -22.059100 56.595600 -6.489600 -11.394966 -4.156270 0.111019 98.752800 -1.480705 24.792057 -15.631148 24.931041 -3.330246 0.120225 0.541090 1.960781 -23.464432 6.347834 -2.501700 7.125000 0.000000 0.000000 2.328300 -23.713500 1.196300 
0.009333 17.897040 -23.960810 -2.287163 4.033882 1.297963 -5.589205 -1.457638 1.050951 -10.712983 -3.311351 -7.898177 1.273338 9.312208 25.577065 0.992695 -2.888872 -5.593284 0.741100 -5.499300 -15.338500 4.645877 2.033826 -0.168692 19.511743 3.182166 -5.935556 -2.251543 -10.289312 27.520679 -0.077236 -3.318782 -12.644912 -0.045800 1.380600 -3.796700 -0.404988 -0.903787 10.301582 1.747745 -1.144753 -3.147364 4.123735 -0.171564 -10.260531 -20.429179 -15.614844 -0.659974 10.440817 -19.998111 6.454949 7.310600 -10.480100 8.881300 7.288868 5.120490 -0.276711 -102.630859 7.055153 16.516353 15.998790 -25.675279 -3.141163 1.068140 0.084489 3.959105 11.484717 26.823850 4.736200 -7.125000 0.000000 0.000000 -21.176900 55.855600 -5.827100 -11.386600 -4.162055 0.113866 98.744356 -1.467989 24.888303 -15.532811 24.768059 -3.287278 0.080681 0.550873 1.873923 -23.539264 4.580377 -1.734600 7.125000 0.000000 0.000000 2.288000 -25.643800 1.073300 
0.012311 17.895252 -23.953364 -2.295116 3.632777 1.222448 -5.588220 -1.459524 1.060533 -10.776000 -3.131275 -7.796289 1.276389 9.317356 25.578663 0.947189 -2.595127 -5.834644 0.785300 -5.657500 -15.793700 4.640612 2.034862 -0.173618 19.475764 3.237864 -5.807344 -2.249185 -10.289754 27.505119 -0.113041 -3.056943 -12.482686 -0.039000 1.274700 -3.504900 -0.373206 -0.742739 10.332082 1.736107 -0.925970 -3.130631 4.081504 -0.066631 -10.263428 -20.456592 -15.621252 -0.906421 10.433127 -20.014281 6.718848 7.288900 -10.486800 9.040100 7.282132 5.109811 -0.284136 -102.572337 7.070675 16.500906 15.876100 -25.475044 -3.071306 1.073156 0.093691 4.026316 11.463852 27.153340 4.776600 -7.125000 0.000000 0.000000 -21.407100 56.147900 -6.049100 -11.387633 -4.181078 0.115431 98.775953 -1.537534 24.651502 -15.395308 24.552821 -3.245921 0.007480 0.548780 2.088734 -22.593791 1.310092 -0.297300 7.125000 0.000000 0.000000 3.115500 -29.199400 1.201300 
0.012112 17.892175 -23.945719 -2.276394 3.823520 1.127431 -5.588357 -1.453013 1.070142 -10.796127 -3.247629 -7.622975 1.276656 9.320974 25.584322 0.962053 -2.663085 -5.905401 0.770300 -5.604300 -15.640400 4.640607 2.036743 -0.163871 19.479023 3.103363 -5.687648 -2.242550 -10.291280 27.485557 -0.119677 -3.051468 -12.581721 -0.033100 1.174700 -3.229600 -0.342859 -0.803899 10.571970 1.740660 -0.999915 -3.231292 4.097817 -0.090753 -10.600015 -20.570026 -15.529817 -0.878037 10.446983 -19.917283 6.956036 7.332300 -10.461000 9.125000 7.281666 5.110145 -0.291298 -102.521214 7.483843 16.441590 15.887766 -25.477966 -3.071012 1.072433 0.106619 4.029318 11.230754 27.389286 4.703400 -7.125000 0.000000 0.000000 -21.782800 56.306600 -6.247800 -11.388491 -4.189757 0.114028 98.779014 -1.910890 24.480593 -15.261412 24.340972 -3.185581 0.011950 0.545071 2.122291 -22.484341 1.490786 -0.372300 7.125000 0.000000 0.000000 3.192400 -28.999700 1.246200 
0.014892 17.892969 -23.950187 -2.275030 3.575453 1.225363 -5.591646 -1.456692 1.059738 -10.832753 -3.271417 -7.677963 1.277083 9.320663 25.584958 0.916379 -2.418563 -5.911706 0.728500 -5.453400 -15.206300 4.639272 2.036559 -0.171986 19.413831 3.166171 -5.823061 -2.250462 -10.292135 27.508384 -0.153218 -2.804528 -12.439124 -0.034500 1.198600 -3.295500 -0.311310 -0.700640 10.278289 1.747737 -0.861060 -3.131837 4.071505 -0.039122 -10.247088 -20.602747 -15.587406 -0.786026 10.627736 -19.976224 6.648239 7.403300 -10.471100 9.025900 7.286075 5.124498 -0.284124 -102.513540 7.260032 16.403720 15.844768 -25.401908 -3.032826 1.075775 0.130946 4.112251 10.705837 28.054570 4.551200 -7.125000 0.000000 0.000000 -22.737900 56.785800 -6.810300 -11.391616 -4.174941 0.124254 98.790736 -1.794812 24.506334 -15.154318 24.225495 -3.124453 0.150617 0.522251 1.302783 -22.552125 7.870159 -3.038400 7.125000 0.000000 0.000000 2.995300 -22.086500 1.651400 
0.015786 17.895153 -23.953265 -2.266172 3.362821 1.295997 -5.593317 -1.459514 1.051469 -10.867538 -3.270284 -7.749422 1.279312 9.323031 25.594717 0.871735 -2.180180 -5.923406 0.727600 -5.450100 -15.197100 4.640383 2.036268 -0.177919 19.369925 3.254052 -5.904465 -2.252630 -10.286448 27.505561 -0.165376 -2.701989 -12.349964 -0.041400 1.313100 -3.610700 -0.288180 -0.607594 10.089773 1.733143 -0.736287 -3.067459 4.008265 0.008039 -10.028889 -20.457374 -15.662853 -0.637864 10.656585 -20.067990 6.334101 7.386000 -10.498400 8.877200 7.294959 5.132442 -0.281870 -102.416508 7.061465 16.248922 15.780430 -25.284765 -2.979077 1.079282 0.156580 4.715836 9.952031 28.847453 4.293700 -7.125000 0.000000 0.000000 -24.023600 57.314200 -7.538500 -11.393523 -4.159539 0.133207 98.879189 -1.781662 24.155254 -15.260076 24.483891 -3.180336 0.311058 0.432130 2.216222 -19.938829 14.856653 -5.222300 7.125000 0.000000 0.000000 4.929300 -14.761500 3.523900 
0.015587 17.896642 -23.955946 -2.272304 3.138002 1.372422 -5.591906 -1.464357 1.040208 -10.885189 -3.251440 -7.835738 1.284299 9.329077 25.616343 0.833186 -1.959189 -6.016926 0.767800 -5.595500 -15.615200 4.642506 2.034776 -0.185996 19.345148 3.365814 -5.980423 -2.254957 -10.281610 27.504623 -0.167980 -2.650286 -12.241345 -0.047000 1.399400 -3.848500 -0.219979 -0.502596 9.801843 1.692548 -0.595186 -2.963479 3.874905 0.052090 -9.662657 -20.332070 -15.737273 -0.757742 10.775016 -20.157667 6.198267 7.386900 -10.514200 8.864600 7.293903 5.140338 -0.281573 -102.263228 6.781494 16.176371 15.697466 -25.166952 -2.946263 1.081516 0.139123 5.220650 10.171169 28.498992 4.352600 -7.125000 0.000000 0.000000 -23.561600 57.051100 -7.230000 -11.387290 -4.165301 0.152318 99.081400 -1.554410 23.573039 -15.115882 24.315751 -3.182375 0.254611 0.420794 2.688806 -18.012655 11.809880 -3.709300 7.125000 0.000000 0.000000 6.228300 -18.098000 4.009100 
0.006354 17.896345 -23.948896 -2.376803 3.461407 1.367116 -5.589924 -1.457040 1.046813 -10.695138 -3.377515 -7.814980 1.284706 9.331546 25.623064 0.870579 -2.162161 -5.965017 0.792300 -5.681800 -15.863800 4.643410 2.027780 -0.177776 19.562170 3.375642 -5.917396 -2.249743 -10.274407 27.484642 -0.123393 -2.979141 -12.437088 -0.043600 1.347400 -3.705300 -0.180095 -0.591772 9.968581 1.734269 -0.706184 -3.076868 3.962558 0.015801 -9.969680 -20.379799 -15.689674 -0.894457 10.739253 -20.109879 6.485969 7.376600 -10.501700 8.997300 7.297354 5.132994 -0.295215 -102.186933 7.158814 16.244919 15.714601 -25.166108 -2.927951 1.088642 0.166550 5.284888 9.930950 29.401490 4.352800 -7.125000 0.000000 0.000000 -24.447100 57.792500 -7.969200 -11.384205 -4.176879 0.143235 99.146668 -1.869412 23.564235 -15.242979 24.489761 -3.220702 0.261583 0.433331 2.519014 -18.816286 12.235412 -4.024000 7.125000 0.000000 0.000000 5.665300 -17.607800 3.704300 
0.011914 17.897536 -23.955052 -2.453051 3.223858 1.360665 -5.589837 -1.459859 1.041897 -10.668519 -3.391641 -7.794284 1.286462 9.334752 25.629144 0.831257 -1.948187 -5.998998 0.782000 -5.645700 -15.759700 4.639796 2.027044 -0.183069 19.580250 3.351916 -5.967715 -2.250091 -10.267685 27.469564 -0.156450 -2.720887 -12.244789 -0.036200 1.227400 -3.374700 0.036196 -0.513223 9.973906 1.729813 -0.575364 -2.992305 3.822651 0.057091 -9.807017 -20.433721 -15.734729 -1.256944 10.912717 -20.132666 6.494017 7.417900 -10.484200 9.117100 7.288558 5.125732 -0.299286 -102.175086 6.914673 16.197551 15.617935 -24.996079 -2.862633 1.087819 0.195989 5.331445 9.126133 30.096459 4.035500 -7.125000 0.000000 0.000000 -25.759900 58.210800 -8.698900 -11.387259 -4.176423 0.139714 99.243876 -1.552131 23.302156 -15.028672 24.151886 -3.102329 0.274305 0.439157 3.101900 -19.553668 12.667042 -4.340200 7.125000 0.000000 0.000000 5.153900 -17.106700 3.423800 
0.011914 17.898827 -23.956144 -2.447403 2.848120 1.409189 -5.591485 -1.466946 1.037112 -10.706577 -3.247782 -7.835821 1.286412 9.333489 25.620487 0.797452 -1.755331 -6.075824 0.769900 -5.603000 -15.636700 4.635363 2.026220 -0.195352 19.535709 3.486681 -5.985082 -2.251533 -10.262530 27.460582 -0.186709 -2.479892 -12.060718 -0.032000 1.153900 -3.172500 0.062081 -0.402269 9.860964 1.738692 -0.427158 -2.857731 3.819073 0.118047 -9.466253 -20.433533 -15.818300 -1.732433 11.049589 -20.187576 6.444576 7.420600 -10.470600 9.228500 7.283378 5.122926 -0.276663 -102.261724 6.384209 15.871001 15.226341 -24.471741 -2.798436 1.048842 0.090346 4.739922 10.271066 26.039855 4.068000 -7.125000 0.000000 0.000000 -21.842900 54.863900 -5.486400 -11.386591 -4.187557 0.129379 99.267540 -1.085763 23.110927 -14.779063 23.763913 -2.981000 0.279920 0.440363 3.382275 -19.797194 12.818129 -4.450700 7.125000 0.000000 0.000000 4.986000 -16.930700 3.330600 
0.009928 17.900018 -23.955151 -2.443847 2.656984 1.449646 -5.593120 -1.468809 1.038254 -10.710691 -3.154836 -7.867549 1.282252 9.324853 25.590967 0.780794 -1.660661 -6.108843 0.775400 -5.622400 -15.692800 4.633085 2.024153 -0.201166 19.528929 3.594831 -6.007351 -2.256109 -10.265266 27.478524 -0.183988 -2.468394 -11.976425 -0.035300 1.213400 -3.336100 0.048199 -0.350051 9.807301 1.753144 -0.359673 -2.824493 3.851276 0.151440 -9.372962 -20.341413 -15.850025 -1.902231 10.981944 -20.198367 6.375320 7.363600 -10.460500 9.217500 7.283520 5.118388 -0.283945 -102.275001 6.263243 15.807979 14.965419 -24.032771 -2.641674 1.071832 0.103379 3.994711 11.260711 26.909270 4.641700 -7.125000 0.000000 0.000000 -21.442700 55.870000 -5.912900 -11.381756 -4.189482 0.129564 99.271694 -1.005727 23.009277 -14.597811 23.479671 -2.895457 0.291342 0.434811 3.455611 -19.756828 13.307811 -4.617900 7.125000 0.000000 0.000000 5.020300 -16.414400 3.410300 
0.004567 17.901110 -23.954258 -2.367953 2.663385 1.466367 -5.594187 -1.468061 1.043723 -10.758511 -3.071872 -7.900826 1.275359 9.311249 25.551432 0.798564 -1.761846 -6.060911 0.776700 -5.627100 -15.706100 4.634127 2.026279 -0.198316 19.459621 3.568583 -6.047304 -2.260781 -10.272971 27.505838 -0.180681 -2.487429 -11.974885 -0.037600 1.250900 -3.439300 -0.088106 -0.365877 9.741404 1.749534 -0.397266 -2.887010 3.926761 0.144975 -9.468714 -20.297812 -15.785057 -1.548311 10.925208 -20.126533 6.207242 7.378500 -10.443200 9.046300 7.293800 5.135967 -0.283968 -102.209454 6.595221 15.784882 14.916037 -23.941769 -2.606197 1.080763 0.106472 3.698345 11.850113 27.168262 4.955700 -7.125000 0.000000 0.000000 -21.036800 56.235400 -5.983000 -11.377702 -4.183530 0.140000 99.299089 -1.338682 22.898539 -14.475094 23.288223 -2.834338 0.313524 0.423674 3.590349 -19.659534 14.292910 -4.946800 7.125000 0.000000 0.000000 5.104400 -15.378800 3.582400 
